<?xml version="1.0" encoding="UTF-8"?>
<svg width="32" height="32" viewBox="0 0 32 32" fill="none" xmlns="http://www.w3.org/2000/svg">
  <!-- Background Circle -->
  <circle cx="16" cy="16" r="15" fill="#1f2937" stroke="#ffffff" stroke-width="2"/>
  
  <!-- Compass Rose -->
  <g transform="translate(16,16)">
    <!-- North-South-East-West Lines -->
    <line x1="0" y1="-10" x2="0" y2="10" stroke="#ffffff" stroke-width="2" stroke-linecap="round"/>
    <line x1="-10" y1="0" x2="10" y2="0" stroke="#ffffff" stroke-width="2" stroke-linecap="round"/>
    
    <!-- Compass Arrow (North) -->
    <path d="M0,-10 L2,-6 L0,-7 L-2,-6 Z" fill="#ffffff"/>
    
    <!-- Cardinal Points -->
    <text x="0" y="-11" fill="#ffffff" font-size="4" text-anchor="middle" dy="-1">N</text>
    <text x="0" y="14" fill="#ffffff" font-size="4" text-anchor="middle">S</text>
    <text x="11" y="1" fill="#ffffff" font-size="4" text-anchor="start">E</text>
    <text x="-11" y="1" fill="#ffffff" font-size="4" text-anchor="end">W</text>
  </g>
  
  <!-- Globe Meridians -->
  <path d="M16,4 C19,4 22,5 24,7 C26,9 27,12 27,16 C27,20 26,23 24,25 C22,27 19,28 16,28" 
        stroke="#ffffff" stroke-width="1.5" fill="none" opacity="0.6"/>
  <path d="M16,4 C13,4 10,5 8,7 C6,9 5,12 5,16 C5,20 6,23 8,25 C10,27 13,28 16,28" 
        stroke="#ffffff" stroke-width="1.5" fill="none" opacity="0.6"/>
</svg> 